<svg xmlns="http://www.w3.org/2000/svg" viewBox="0 0 1200 800" role="img" aria-label="Portable air conditioner series lineup render">
  <defs>
    <linearGradient id="bg" x1="0" y1="0" x2="0" y2="1">
      <stop offset="0" stop-color="#fbfcfe"/>
      <stop offset="1" stop-color="#e9edf4"/>
    </linearGradient>
    <linearGradient id="shine" x1="0" y1="0" x2="1" y2="0">
      <stop offset="0" stop-color="#ffffff" stop-opacity="0.72"/>
      <stop offset="1" stop-color="#ffffff" stop-opacity="0"/>
    </linearGradient>
    <linearGradient id="body" x1="0" y1="0" x2="1" y2="1">
      <stop offset="0" stop-color="#ffffff"/>
      <stop offset="1" stop-color="#d9dfe8"/>
    </linearGradient>
  </defs>
  <rect width="1200" height="800" fill="url(#bg)"/>
  <circle cx="600" cy="280" r="430" fill="#ffffff" opacity="0.48"/>
  <ellipse cx="600" cy="706" rx="330" ry="42" fill="#1a1a2e" opacity="0.08"/>
  
  <g>
    <g transform="translate(70, 0) scale(0.62)">
<rect x="330" y="150" width="540" height="540" rx="48" fill="#ffffff"/>
<rect x="374" y="190" width="452" height="126" rx="20" fill="#f2f5f9"/>
<rect x="404" y="214" width="392" height="72" rx="14" fill="#0d1420"/>
<rect x="414" y="404" width="372" height="18" rx="9" fill="#c7cfda"/>
<rect x="414" y="438" width="372" height="18" rx="9" fill="#c7cfda"/>
<rect x="414" y="472" width="372" height="18" rx="9" fill="#c7cfda"/>
<circle cx="420" cy="714" r="24" fill="#3a4350"/>
<circle cx="780" cy="714" r="24" fill="#3a4350"/>
</g>
  <g transform="translate(230, 0)">
<g transform="translate(70, 0) scale(0.62)">
<rect x="330" y="150" width="540" height="540" rx="48" fill="#ffffff"/>
<rect x="330" y="150" width="540" height="540" rx="48" fill="#e8ecf2"/>
<rect x="404" y="214" width="392" height="72" rx="14" fill="#0d1420"/>
<rect x="414" y="404" width="372" height="18" rx="9" fill="#c7cfda"/>
<rect x="414" y="438" width="372" height="18" rx="9" fill="#c7cfda"/>
<rect x="414" y="472" width="372" height="18" rx="9" fill="#c7cfda"/>
<circle cx="420" cy="714" r="24" fill="#3a4350"/>
<circle cx="780" cy="714" r="24" fill="#3a4350"/>
</g>
  </g>
  <g transform="translate(460, 0)">
<g transform="translate(70, 0) scale(0.62)">
<rect x="330" y="150" width="540" height="540" rx="48" fill="#ffffff"/>
<rect x="330" y="150" width="540" height="540" rx="48" fill="#1d2534"/>
<rect x="404" y="214" width="392" height="72" rx="14" fill="#0d1420"/>
<rect x="414" y="404" width="372" height="18" rx="9" fill="#c7cfda"/>
<rect x="414" y="438" width="372" height="18" rx="9" fill="#c7cfda"/>
<rect x="414" y="472" width="372" height="18" rx="9" fill="#c7cfda"/>
<circle cx="420" cy="714" r="24" fill="#3a4350"/>
<circle cx="780" cy="714" r="24" fill="#3a4350"/>
</g>
  </g>
  </g>

</svg>
