<svg xmlns="http://www.w3.org/2000/svg" viewBox="0 0 1200 800" role="img" aria-label="Portable air conditioner application scene">
  <defs>
    <linearGradient id="bg" x1="0" y1="0" x2="0" y2="1">
      <stop offset="0" stop-color="#fbfcfe"/>
      <stop offset="1" stop-color="#e9edf4"/>
    </linearGradient>
    <linearGradient id="shine" x1="0" y1="0" x2="1" y2="0">
      <stop offset="0" stop-color="#ffffff" stop-opacity="0.72"/>
      <stop offset="1" stop-color="#ffffff" stop-opacity="0"/>
    </linearGradient>
    <linearGradient id="body" x1="0" y1="0" x2="1" y2="1">
      <stop offset="0" stop-color="#ffffff"/>
      <stop offset="1" stop-color="#d9dfe8"/>
    </linearGradient>
  </defs>
  <rect width="1200" height="800" fill="url(#bg)"/>
  <circle cx="600" cy="280" r="430" fill="#ffffff" opacity="0.48"/>
  <ellipse cx="600" cy="706" rx="330" ry="42" fill="#1a1a2e" opacity="0.08"/>
  
  <g>
    <rect x="0" y="0" width="1200" height="470" fill="#f4f1ea"/>
    <rect x="0" y="470" width="1200" height="330" fill="#e6dfd4"/>
    <line x1="0" y1="470" x2="1200" y2="470" stroke="#cfc7ba" stroke-width="4"/>
    <rect x="80" y="80" width="430" height="330" rx="18" fill="#d9e8f2"/>
    <line x1="80" y1="220" x2="510" y2="220" stroke="#f7fbfd" stroke-width="14"/>
    <line x1="80" y1="300" x2="510" y2="300" stroke="#f7fbfd" stroke-width="14"/>
    <rect x="880" y="120" width="250" height="300" rx="18" fill="#e2d8c8"/>
    <rect x="905" y="145" width="200" height="250" rx="10" fill="#cfc2ad"/>
    <path d="M 780 690 C 690 620, 700 540, 640 470" fill="none" stroke="#7d8b99" stroke-width="28" stroke-linecap="round"/>
    <rect x="560" y="470" width="360" height="250" rx="30" fill="#ffffff"/>
    <rect x="596" y="506" width="288" height="92" rx="16" fill="#f2f5f9"/>
    <rect x="618" y="526" width="244" height="52" rx="12" fill="#0d1420"/>
    <rect x="596" y="626" width="288" height="50" rx="16" fill="#e9edf4"/>
    <rect x="596" y="636" width="288" height="10" rx="5" fill="#c7cfda"/>
    <circle cx="620" cy="726" r="18" fill="#3a4350"/>
    <circle cx="860" cy="726" r="18" fill="#3a4350"/>
    <ellipse cx="740" cy="700" rx="230" ry="34" fill="#1a1a2e" opacity="0.08"/>
  </g>

</svg>
